{
  "accessors": [
    {
      "bufferView": 2,
      "componentType": 5126,
      "count": 8225,
      "max": [
        30.154403686523438,
        32.63243103027344,
        13.850357055664063
      ],
      "min": [
        -18.188268661499023,
        -9.236651420593262,
        -35.848655700683594
      ],
      "type": "VEC3"
    },
    {
      "bufferView": 2,
      "byteOffset": 98700,
      "componentType": 5126,
      "count": 8225,
      "max": [
        1.0,
        1.0,
        1.0
      ],
      "min": [
        -0.999955952167511,
        -0.9999932646751404,
        -1.0
      ],
      "type": "VEC3"
    },
    {
      "bufferView": 1,
      "componentType": 5126,
      "count": 8225,
      "max": [
        0.999500036239624,
        0.9942023158073425
      ],
      "min": [
        0.0005000000237487257,
        0.0005000000237487257
      ],
      "type": "VEC2"
    },
    {
      "bufferView": 0,
      "componentType": 5125,
      "count": 38913,
      "type": "SCALAR"
    }
  ],
  "asset": {
    "extras": {
      "author": "mizuhi (https://sketchfab.com/mizuhi)",
      "license": "CC-BY-4.0 (http://creativecommons.org/licenses/by/4.0/)",
      "source": "https://sketchfab.com/3d-models/pumpkin-7ec3c1dd67c64139a90ef0d3b728835c",
      "title": "Pumpkin"
    },
    "generator": "Sketchfab-12.68.0",
    "version": "2.0"
  },
  "bufferViews": [
    {
      "buffer": 0,
      "byteLength": 155652,
      "name": "floatBufferViews",
      "target": 34963
    },
    {
      "buffer": 0,
      "byteLength": 65800,
      "byteOffset": 155652,
      "byteStride": 8,
      "name": "floatBufferViews",
      "target": 34962
    },
    {
      "buffer": 0,
      "byteLength": 197400,
      "byteOffset": 221452,
      "byteStride": 12,
      "name": "floatBufferViews",
      "target": 34962
    }
  ],
  "buffers": [
    {
      "byteLength": 418852,
      "uri": "scene.bin"
    }
  ],
  "images": [
    {
      "uri": "textures/Calabaza_baseColor.png"
    },
    {
      "uri": "textures/Calabaza_metallicRoughness.png"
    },
    {
      "uri": "textures/Calabaza_emissive.png"
    }
  ],
  "materials": [
    {
      "doubleSided": true,
      "emissiveFactor": [
        0.8664013259051788,
        0.8664013259051788,
        0.8664013259051788
      ],
      "emissiveTexture": {
        "index": 2
      },
      "name": "Calabaza",
      "pbrMetallicRoughness": {
        "baseColorTexture": {
          "index": 0
        },
        "metallicFactor": 0.0,
        "metallicRoughnessTexture": {
          "index": 1
        }
      }
    }
  ],
  "meshes": [
    {
      "name": "Calabaza_Calabaza_0",
      "primitives": [
        {
          "attributes": {
            "NORMAL": 1,
            "POSITION": 0,
            "TEXCOORD_0": 2
          },
          "indices": 3,
          "material": 0,
          "mode": 4
        }
      ]
    }
  ],
  "nodes": [
    {
      "children": [
        1
      ],
      "matrix": [
        1.0,
        0.0,
        0.0,
        0.0,
        0.0,
        2.220446049250313e-16,
        -1.0,
        0.0,
        0.0,
        1.0,
        2.220446049250313e-16,
        0.0,
        0.0,
        0.0,
        0.0,
        1.0
      ],
      "name": "Sketchfab_model"
    },
    {
      "children": [
        2
      ],
      "matrix": [
        0.009999999776482582,
        0.0,
        0.0,
        0.0,
        0.0,
        0.0,
        0.009999999776482582,
        0.0,
        0.0,
        -0.009999999776482582,
        0.0,
        0.0,
        0.0,
        0.0,
        0.0,
        1.0
      ],
      "name": "bdd646d9260a4426be58e33d5a30cbe6.fbx"
    },
    {
      "children": [
        3
      ],
      "name": "RootNode"
    },
    {
      "children": [
        4
      ],
      "matrix": [
        1.0,
        0.0,
        0.0,
        0.0,
        0.0,
        0.9999999999999867,
        1.6292068494294582e-07,
        0.0,
        0.0,
        -1.6292068494294582e-07,
        0.9999999999999867,
        0.0,
        -5.916823863983154,
        9.978144645690918,
        10.883299827575684,
        1.0
      ],
      "name": "Calabaza"
    },
    {
      "mesh": 0,
      "name": "Calabaza_Calabaza_0"
    }
  ],
  "samplers": [
    {
      "magFilter": 9729,
      "minFilter": 9987,
      "wrapS": 10497,
      "wrapT": 10497
    }
  ],
  "scene": 0,
  "scenes": [
    {
      "name": "Sketchfab_Scene",
      "nodes": [
        0
      ]
    }
  ],
  "textures": [
    {
      "sampler": 0,
      "source": 0
    },
    {
      "sampler": 0,
      "source": 1
    },
    {
      "sampler": 0,
      "source": 2
    }
  ]
}
